# xmcd CD database file
#
# Track frame offsets:
#	183
#	12403
#	24710
#	39160
#	51733
#	64053
#	77688
#	90200
#	104325
#	118048
#	129703
#	142140
#	156460
#	168965
#	181935
#	193538
#	205648
#	220925
#	235228
#	249585
#	264390
#	278390
#
# Disc length: 3879 seconds
#
# Revision: 2
# Processed by: cddbd v1.5.1PL0 Copyright (c) Steve Scherf et al.
# Submitted via: CDex 1.50Beta7
#
DISCID=340f2516
DTITLE=Sidney Bechet and Claude Luther - Blues in the cave - Album N°1
DYEAR=1990
DGENRE=Blues
TTITLE0=Anita' birthday
TTITLE1=Les oignons
TTITLE2=Ridin' easy blues
TTITLE3=Temptation rag
TTITLE4=Riverboat shuffle
TTITLE5=Sobbin' and cryin'
TTITLE6=Everybody loves my baby
TTITLE7=Struttin' with some barbecue
TTITLE8=Sawmill blues
TTITLE9=Maryland, my Maryland
TTITLE10=Careless love blues
TTITLE11=Moustache gauloise
TTITLE12=Francis blues
TTITLE13=Casey Jones
TTITLE14=Lastic
TTITLE15=Down home rag
TTITLE16=Society blues
TTITLE17=Bill Bailey
TTITLE18=In the groove
TTITLE19=En attendant le jour
TTITLE20=Wolverine blues
TTITLE21=Blues in the cave
EXTD=YEAR: 1990
EXTT0=
EXTT1=
EXTT2=
EXTT3=
EXTT4=
EXTT5=
EXTT6=
EXTT7=
EXTT8=
EXTT9=
EXTT10=
EXTT11=
EXTT12=
EXTT13=
EXTT14=
EXTT15=
EXTT16=
EXTT17=
EXTT18=
EXTT19=
EXTT20=
EXTT21=
PLAYORDER=
